<?xml version="1.0" encoding="UTF-8" standalone="no"?>
<svg
   xmlns:dc="http://purl.org/dc/elements/1.1/"
   xmlns:cc="http://creativecommons.org/ns#"
   xmlns:rdf="http://www.w3.org/1999/02/22-rdf-syntax-ns#"
   xmlns:svg="http://www.w3.org/2000/svg"
   xmlns="http://www.w3.org/2000/svg"
   xmlns:sodipodi="http://sodipodi.sourceforge.net/DTD/sodipodi-0.dtd"
   xmlns:inkscape="http://www.inkscape.org/namespaces/inkscape"
   width="512"
   height="512"
   viewBox="0 0 135.46666 135.46667"
   version="1.1"
   id="svg8"
   inkscape:version="1.0.2 (e86c870879, 2021-01-15)"
   sodipodi:docname="icon.svg">
  <defs
     id="defs2" />
  <sodipodi:namedview
     id="base"
     pagecolor="#ffffff"
     bordercolor="#666666"
     borderopacity="1.0"
     inkscape:pageopacity="0.0"
     inkscape:pageshadow="2"
     inkscape:zoom="0.98994949"
     inkscape:cx="342.95597"
     inkscape:cy="215.80696"
     inkscape:document-units="mm"
     inkscape:current-layer="layer4"
     inkscape:document-rotation="0"
     showgrid="false"
     units="px"
     inkscape:showpageshadow="false"
     showguides="false"
     inkscape:window-width="1680"
     inkscape:window-height="999"
     inkscape:window-x="0"
     inkscape:window-y="27"
     inkscape:window-maximized="1">
    <inkscape:grid
       type="xygrid"
       id="grid10"
       spacingx="2.1166666"
       spacingy="2.1166666"
       empspacing="4" />
  </sodipodi:namedview>
  <metadata
     id="metadata5">
    <rdf:RDF>
      <cc:Work
         rdf:about="">
        <dc:format>image/svg+xml</dc:format>
        <dc:type
           rdf:resource="http://purl.org/dc/dcmitype/StillImage" />
        <dc:title></dc:title>
      </cc:Work>
    </rdf:RDF>
  </metadata>
  <g
     inkscape:label="Background"
     inkscape:groupmode="layer"
     id="layer1"
     sodipodi:insensitive="true">
    <rect
       style="fill:#557153;fill-opacity:1;stroke-width:0.264583"
       id="rect12"
       width="135.46666"
       height="135.46666"
       x="0"
       y="0"
       ry="1.0583333" />
  </g>
  <g
     inkscape:groupmode="layer"
     id="g934"
     inkscape:label="Main copia"
     sodipodi:insensitive="true">
    <path
       id="path932"
       style="fill:#232e22;fill-opacity:1;stroke:none;stroke-width:0.264583;stroke-opacity:1"
       d="m 45.508334,37.041582 c 0,0 16.903986,-2.116669 25.400001,-2.116669 8.496014,0 25.399998,2.116669 25.399998,2.116669 0,0 -2.116667,22.555773 -2.116667,33.8667 0,11.310927 2.116667,33.866728 2.116667,33.866728 0,0 -16.903984,-2.11668 -25.399998,-2.11668 -8.496015,0 -25.400001,2.11668 -25.400001,2.11668 0,0 2.116667,-22.555801 2.116667,-33.866728 0,-11.310927 -2.116667,-33.8667 -2.116667,-33.8667 z"
       sodipodi:nodetypes="cscscscsc" />
  </g>
  <g
     inkscape:groupmode="layer"
     id="layer3"
     inkscape:label="Main"
     sodipodi:insensitive="true">
    <path
       id="rect915"
       style="fill:#e6e5a3;fill-opacity:1;stroke:#ffffff;stroke-width:0.264583;stroke-opacity:1"
       d="m 42.333332,33.866665 c 0,0 16.903986,-2.116667 25.4,-2.116667 8.496014,0 25.399999,2.116667 25.399999,2.116667 0,0 -2.116667,22.555748 -2.116667,33.866663 0,11.310914 2.116667,33.866662 2.116667,33.866662 0,0 -16.903985,-2.116667 -25.399999,-2.116667 -8.496014,0 -25.4,2.116667 -25.4,2.116667 0,0 2.116667,-22.555748 2.116667,-33.866662 0,-11.310915 -2.116667,-33.866663 -2.116667,-33.866663 z"
       sodipodi:nodetypes="cscscscsc" />
  </g>
  <g
     inkscape:groupmode="layer"
     id="layer4"
     inkscape:label="Main 1"
     sodipodi:insensitive="true">
    <path
       id="rect923"
       style="fill:#557153;fill-opacity:1;stroke:#557153;stroke-width:0.264583;stroke-opacity:1"
       d="m 50.799999,42.333332 c 0,0 11.264138,-1.5875 16.933333,-1.5875 5.669194,0 16.933332,1.5875 16.933332,1.5875 v 1.852083 1.852084 c 0,0 -11.264138,-1.5875 -16.933332,-1.5875 -5.669195,0 -16.933333,1.5875 -16.933333,1.5875 v -1.852084 z"
       sodipodi:nodetypes="cscccsccc" />
    <path
       id="path926"
       style="fill:#557153;fill-opacity:1;stroke:#557153;stroke-width:0.264583;stroke-opacity:1"
       d="m 50.799999,84.666692 c 0,0 11.264138,-1.5875 16.933333,-1.5875 5.669194,0 16.933332,1.5875 16.933332,1.5875 v 1.852083 1.852084 c 0,0 -11.264138,-1.5875 -16.933332,-1.5875 -5.669195,0 -16.933333,1.5875 -16.933333,1.5875 v -1.852084 z"
       sodipodi:nodetypes="cscccsccc" />
    <path
       id="path930"
       style="fill:#557153;fill-opacity:1;stroke:#557153;stroke-width:0.234876;stroke-opacity:1"
       d="m 52.850771,63.850239 c 0,0 9.899954,-1.423414 14.882563,-1.423414 4.982607,0 14.882561,1.423414 14.882561,1.423414 v 1.660649 1.660648 c 0,0 -9.899954,-1.423413 -14.882561,-1.423413 -4.982609,0 -14.882563,1.423413 -14.882563,1.423413 v -1.660648 z"
       sodipodi:nodetypes="cscccsccc" />
  </g>
</svg>
