<svg xmlns="http://www.w3.org/2000/svg" width="512" height="512" viewBox="0 0 135.467 135.467" version="1.1" id="svg8"><g id="layer1"><rect style="fill:#557153;fill-opacity:1;stroke-width:.264583px" id="rect12" width="135.467" height="135.467" x="0" y="0" ry="1.058"/></g><g id="g934"><path id="path932" style="fill:#232e22;fill-opacity:1;stroke:none;stroke-width:.264583px;stroke-opacity:1" d="M45.508 37.042s16.904-2.117 25.4-2.117c8.496 0 25.4 2.117 25.4 2.117s-2.116 22.555-2.116 33.866 2.116 33.867 2.116 33.867-16.904-2.117-25.4-2.117c-8.496 0-25.4 2.117-25.4 2.117s2.117-22.556 2.117-33.867c0-11.31-2.117-33.866-2.117-33.866z"/></g><g id="layer3"><path id="rect915" style="fill:#e6e5a3;fill-opacity:1;stroke:#fff;stroke-width:.264583px;stroke-opacity:1" d="M42.333 33.867s16.904-2.117 25.4-2.117c8.496 0 25.4 2.117 25.4 2.117s-2.116 22.555-2.116 33.866 2.116 33.867 2.116 33.867-16.904-2.117-25.4-2.117c-8.496 0-25.4 2.117-25.4 2.117s2.117-22.556 2.117-33.867c0-11.31-2.117-33.866-2.117-33.866z"/></g><g id="layer4"><path id="rect923" style="fill:#557153;fill-opacity:1;stroke:#557153;stroke-width:.264583px;stroke-opacity:1" d="M50.8 42.333s11.264-1.587 16.933-1.587c5.67 0 16.934 1.587 16.934 1.587v3.704S73.403 44.45 67.733 44.45c-5.669 0-16.933 1.587-16.933 1.587v-1.852z"/><path id="path926" style="fill:#557153;fill-opacity:1;stroke:#557153;stroke-width:.264583px;stroke-opacity:1" d="M50.8 84.667s11.264-1.588 16.933-1.588c5.67 0 16.934 1.588 16.934 1.588v3.704s-11.264-1.588-16.934-1.588c-5.669 0-16.933 1.588-16.933 1.588v-1.852z"/><path id="path930" style="fill:#557153;fill-opacity:1;stroke:#557153;stroke-width:.234876px;stroke-opacity:1" d="M52.85 63.85s9.9-1.423 14.883-1.423c4.983 0 14.883 1.423 14.883 1.423v3.322s-9.9-1.424-14.883-1.424c-4.982 0-14.882 1.424-14.882 1.424V65.51z"/></g></svg>